<svg width="28" height="28" viewBox="0 0 28 28" fill="none" xmlns="http://www.w3.org/2000/svg">
<path d="M14.0013 16.3334C15.29 16.3334 16.3346 15.2887 16.3346 14.0001C16.3346 12.7114 15.29 11.6667 14.0013 11.6667C12.7126 11.6667 11.668 12.7114 11.668 14.0001C11.668 15.2887 12.7126 16.3334 14.0013 16.3334Z" fill="#5F2EEA"/>
<path d="M22.1654 16.3334C23.454 16.3334 24.4987 15.2887 24.4987 14.0001C24.4987 12.7114 23.454 11.6667 22.1654 11.6667C20.8767 11.6667 19.832 12.7114 19.832 14.0001C19.832 15.2887 20.8767 16.3334 22.1654 16.3334Z" fill="#5F2EEA"/>
<path d="M5.83333 16.3334C7.122 16.3334 8.16667 15.2887 8.16667 14.0001C8.16667 12.7114 7.122 11.6667 5.83333 11.6667C4.54467 11.6667 3.5 12.7114 3.5 14.0001C3.5 15.2887 4.54467 16.3334 5.83333 16.3334Z" fill="#5F2EEA"/>
</svg>
