<svg width="63" height="63" viewBox="0 0 63 63" fill="none" xmlns="http://www.w3.org/2000/svg">
<g clip-path="url(#clip0)">
<path d="M37.6929 52.7626C37.3642 52.6759 37.0612 52.5118 36.8092 52.2838L27.8094 43.9984L15.8727 46.6739C15.4849 46.7616 15.0803 46.7387 14.7048 46.6078C14.3294 46.4769 13.9982 46.2434 13.7489 45.9336C13.4995 45.6239 13.3421 45.2505 13.2945 44.8557C13.2469 44.461 13.311 44.0608 13.4795 43.7007L18.6285 32.6946L12.3718 22.2182C12.1785 21.8842 12.0798 21.5039 12.0863 21.1181C12.0928 20.7322 12.2042 20.3554 12.4086 20.0281C12.6253 19.6952 12.931 19.4297 13.291 19.2617C13.651 19.0938 14.0508 19.0301 14.4452 19.0779L26.6015 20.5092L34.5749 11.3598C34.836 11.0578 35.1768 10.8355 35.5584 10.7182C35.94 10.601 36.3469 10.5936 36.7325 10.6969C37.1181 10.8003 37.4668 11.0101 37.7387 11.3024C38.0105 11.5948 38.1945 11.9578 38.2696 12.3498L40.6672 24.2561L51.9105 29.0947C52.2759 29.2505 52.5904 29.5056 52.8181 29.831C53.0459 30.1565 53.1779 30.5392 53.1991 30.9359C53.2125 31.3216 53.1206 31.7036 52.9333 32.041C52.746 32.3784 52.4704 32.6584 52.136 32.851L41.4793 38.7954L40.4355 50.9015C40.4057 51.306 40.2607 51.6934 40.0178 52.0182C39.7748 52.3429 39.444 52.5913 39.0645 52.7341C38.623 52.895 38.1406 52.905 37.6929 52.7626Z" fill="url(#paint0_linear)"/>
</g>
<defs>
<linearGradient id="paint0_linear" x1="36.7633" y1="10.7052" x2="26.3085" y2="49.723" gradientUnits="userSpaceOnUse">
<stop stop-color="#FFF6DC"/>
<stop offset="1" stop-color="#FFC107"/>
</linearGradient>
<clipPath id="clip0">
<rect width="51" height="51" fill="white" transform="translate(13.1992) rotate(15)"/>
</clipPath>
</defs>
</svg>
