<svg width="24" height="24" viewBox="0 0 24 24" fill="none" xmlns="http://www.w3.org/2000/svg">
<path d="M23.0748 19.4734L13.8148 2.43341C13.6304 2.09381 13.3579 1.81026 13.0258 1.61267C12.6937 1.41509 12.3145 1.31079 11.9281 1.31079C11.5417 1.31079 11.1625 1.41509 10.8304 1.61267C10.4983 1.81026 10.2258 2.09381 10.0414 2.43341L0.788101 19.4734C0.605116 19.8011 0.511223 20.171 0.515784 20.5462C0.520344 20.9215 0.623199 21.289 0.814093 21.6121C1.00499 21.9352 1.27725 22.2026 1.60373 22.3876C1.9302 22.5727 2.29949 22.6689 2.67477 22.6667H21.1881C21.5596 22.6664 21.9246 22.5696 22.2474 22.3859C22.5703 22.2022 22.84 21.9379 23.0301 21.6188C23.2202 21.2997 23.3243 20.9367 23.3321 20.5653C23.3399 20.194 23.2513 19.8269 23.0748 19.5001V19.4734ZM11.0748 6.66675C11.0748 6.41921 11.1731 6.18181 11.3481 6.00678C11.5232 5.83175 11.7606 5.73341 12.0081 5.73341C12.2556 5.73341 12.493 5.83175 12.6681 6.00678C12.8431 6.18181 12.9414 6.41921 12.9414 6.66675V14.6667C12.9414 14.9143 12.8431 15.1517 12.6681 15.3267C12.493 15.5017 12.2556 15.6001 12.0081 15.6001C11.7606 15.6001 11.5232 15.5017 11.3481 15.3267C11.1731 15.1517 11.0748 14.9143 11.0748 14.6667V6.66675ZM12.0081 19.9001C11.7708 19.9001 11.5388 19.8297 11.3414 19.6978C11.1441 19.566 10.9903 19.3786 10.8994 19.1593C10.8086 18.94 10.7849 18.6987 10.8312 18.466C10.8775 18.2332 10.9917 18.0194 11.1596 17.8516C11.3274 17.6837 11.5412 17.5694 11.774 17.5231C12.0068 17.4768 12.248 17.5006 12.4673 17.5914C12.6866 17.6822 12.874 17.8361 13.0059 18.0334C13.1377 18.2307 13.2081 18.4627 13.2081 18.7001C13.2081 18.8577 13.1771 19.0137 13.1168 19.1593C13.0564 19.3049 12.9681 19.4372 12.8566 19.5486C12.7452 19.66 12.6129 19.7484 12.4673 19.8087C12.3217 19.869 12.1657 19.9001 12.0081 19.9001Z" fill="#F4B740"/>
</svg>
